Coordinates
version=1
nRows=24
nColumns=24
inDegrees=yes

Units are S.I. units (second, meters, Newtons, ...)
Angles are in degrees.

endheader
time	pelvis_tilt	pelvis_list	pelvis_rotation	pelvis_tx	pelvis_ty	pelvis_tz	hip_flexion_r	hip_adduction_r	hip_rotation_r	knee_angle_r	ankle_angle_r	subtalar_angle_r	mtp_angle_r	hip_flexion_l	hip_adduction_l	hip_rotation_l	knee_angle_l	ankle_angle_l	subtalar_angle_l	mtp_angle_l	lumbar_extension	lumbar_bending	lumbar_rotation
      3.33000000	     -0.83755463	      6.07745113	     -3.04507115	     -0.57216565	      0.93708127	      0.19133007	     23.98880387	     -4.33393679	      0.80941965	    -68.65942935	      9.79177097	     -9.64915720	      0.00000000	     13.09995725	     12.35361125	      3.79354495	    -23.12311548	     15.89082631	    -19.51563652	      0.00000000	    -10.05272760	     -8.49828941	     -8.52905764
      3.33500000	     -0.79615639	      5.79393147	     -2.80581912	     -0.56573123	      0.93830357	      0.19091226	     24.44681802	     -4.05489363	      0.67246760	    -67.70954969	     10.18752570	     -9.44851578	      0.00000000	     12.28506075	     12.18348909	      4.40058939	    -22.61592250	     15.89009590	    -19.81340218	      0.00000000	    -10.13886235	     -8.10485535	     -8.74123063
      3.34000000	     -0.75812389	      5.51734565	     -2.56596583	     -0.55931179	      0.93945681	      0.19048079	     24.88427238	     -3.79175804	      0.53207648	    -66.68215322	     10.51395652	     -9.27670766	      0.00000000	     11.46901036	     12.01216533	      5.01992183	    -22.09113631	     15.88802282	    -20.12427439	      0.00000000	    -10.21875983	     -7.71517937	     -8.96038425
      3.34500000	     -0.74761811	      5.23784520	     -2.32463336	     -0.55294435	      0.94049626	      0.19007757	     25.31913297	     -3.52310080	      0.38923371	    -65.56478995	     10.82156510	     -9.16059624	      0.00000000	     10.70481329	     11.82061728	      5.59095789	    -21.59218926	     15.89742147	    -20.41507079	      0.00000000	    -10.26945947	     -7.32454544	     -9.16017435
      3.35000000	     -0.73231875	      4.97092438	     -2.07827206	     -0.54658215	      0.94148702	      0.18966027	     25.71991747	     -3.27571608	      0.24698786	    -64.36767257	     11.05675830	     -9.08911692	      0.00000000	      9.92696138	     11.63585400	      6.19305759	    -21.07208143	     15.88511147	    -20.71789028	      0.00000000	    -10.32404091	     -6.94713375	     -9.38329533
      3.35500000	     -0.72863334	      4.71697549	     -1.83577782	     -0.54024614	      0.94238761	      0.18928614	     26.10446286	     -3.03701829	      0.12081283	    -63.09127089	     11.24747417	     -9.06712069	      0.00000000	      9.16865561	     11.44972737	      6.77945169	    -20.55371904	     15.87039846	    -21.01354813	      0.00000000	    -10.36599958	     -6.59495360	     -9.60075094
      3.36000000	     -0.73464827	      4.47308735	     -1.59256327	     -0.53391746	      0.94318867	      0.18890656	     26.46719024	     -2.81275984	     -0.00267060	    -61.73493658	     11.40287029	     -9.10891406	      0.00000000	      8.42502719	     11.26497907	      7.35603213	    -20.03416333	     15.86061833	    -21.31198402	      0.00000000	    -10.39435709	     -6.24954879	     -9.81881687
      3.36500000	     -0.75867932	      4.23579109	     -1.35056116	     -0.52758971	      0.94387206	      0.18852772	     26.81804844	     -2.60282110	     -0.13132539	    -60.30010926	     11.51885892	     -9.21283362	      0.00000000	      7.70817009	     11.07547250	      7.89554009	    -19.51801267	     15.87548496	    -21.60837333	      0.00000000	    -10.39503314	     -5.91175480	    -10.01237345
      3.37000000	     -0.76674946	      4.02922410	     -1.10724898	     -0.52129746	      0.94451076	      0.18817241	     27.12207791	     -2.42107229	     -0.23173117	    -58.79125012	     11.59151453	     -9.36631026	      0.00000000	      6.97222343	     10.91039213	      8.48208766	    -18.99379894	     15.84057578	    -21.91119440	      0.00000000	    -10.42610407	     -5.61342643	    -10.25423848
      3.37500000	     -0.79082950	      3.83209995	     -0.86880996	     -0.51499192	      0.94503231	      0.18781736	     27.41079312	     -2.25408650	     -0.32750124	    -57.20725282	     11.62654585	     -9.57225476	      0.00000000	      6.25727902	     10.74485234	      9.03771139	    -18.46940880	     15.82480065	    -22.21868012	      0.00000000	    -10.42885293	     -5.32436050	    -10.47081759
      3.38000000	     -0.84647854	      3.64343387	     -0.64116354	     -0.50868140	      0.94541761	      0.18747717	     27.70397456	     -2.10354720	     -0.43106431	    -55.55108085	     11.62343278	     -9.81964542	      0.00000000	      5.58741793	     10.57489032	      9.52812039	    -17.95429630	     15.83781458	    -22.49706156	      0.00000000	    -10.39067659	     -5.04917661	    -10.63458601
      3.38500000	     -0.81903478	      3.49161550	     -0.39003953	     -0.50239459	      0.94584349	      0.18709998	     27.86555768	     -1.99504442	     -0.49236796	    -53.82177644	     11.62790062	    -10.04536948	      0.00000000	      4.80638493	     10.44882756	     10.17254144	    -17.40605249	     15.74476119	    -22.90331560	      0.00000000	    -10.46123930	     -4.80895084	    -10.91039820
      3.39000000	     -0.85361902	      3.34866510	     -0.15412890	     -0.49610590	      0.94609076	      0.18679722	     28.06931398	     -1.89292925	     -0.55512296	    -52.02834562	     11.55449122	    -10.34788920	      0.00000000	      4.10815573	     10.31044076	     10.71969302	    -16.87555139	     15.70975332	    -23.22847724	      0.00000000	    -10.45738681	     -4.59543741	    -11.12995372
      3.39500000	     -0.95078520	      3.21713107	      0.06231417	     -0.48981803	      0.94616248	      0.18654198	     28.31736006	     -1.79697427	     -0.60255499	    -50.17531416	     11.39649402	    -10.71357572	      0.00000000	      3.49491355	     10.16664669	     11.16128423	    -16.36639685	     15.74211679	    -23.44454833	      0.00000000	    -10.37187003	     -4.39958813	    -11.29693586
      3.40000000	     -0.92913184	      3.12757176	      0.31688113	     -0.48355498	      0.94632183	      0.18621525	     28.39356104	     -1.76686011	     -0.63744633	    -48.25943738	     11.27219292	    -11.00267593	      0.00000000	      2.72817442	     10.07104901	     11.77321847	    -15.81826158	     15.65718785	    -23.81076417	      0.00000000	    -10.44346837	     -4.24137332	    -11.59237617
      3.40500000	     -1.02958318	      3.02460791	      0.51940791	     -0.47723293	      0.94621962	      0.18597797	     28.57560051	     -1.71054972	     -0.66122057	    -46.28472662	     11.08888296	    -11.29830223	      0.00000000	      2.12158560	      9.94332597	     12.19885466	    -15.31350617	     15.68006122	    -24.03725248	      0.00000000	    -10.35178519	     -4.08215631	    -11.73849695
      3.41000000	     -0.99625738	      2.98118061	      0.76098636	     -0.47095726	      0.94622259	      0.18568130	     28.58045850	     -1.73705487	     -0.66857490	    -44.27036519	     10.91943514	    -11.51518136	      0.00000000	      1.33974897	      9.87539452	     12.78288970	    -14.75306107	     15.58606625	    -24.39767075	      0.00000000	    -10.44119385	     -3.98010208	    -12.03263218
      3.41500000	     -1.09707082	      2.91892058	      0.95975955	     -0.46463863	      0.94594604	      0.18548397	     28.70532814	     -1.73529672	     -0.68039241	    -42.20627211	     10.70882029	    -11.71467401	      0.00000000	      0.74003466	      9.77241251	     13.17779216	    -14.25344390	     15.61675272	    -24.59685509	      0.00000000	    -10.35466564	     -3.87661591	    -12.17874059
      3.42000000	     -1.11433809	      2.88808894	      1.17788879	     -0.45831930	      0.94571649	      0.18525213	     28.70703897	     -1.78397763	     -0.70214702	    -40.10382304	     10.48658227	    -11.84924255	      0.00000000	      0.03316968	      9.69528040	     13.64720522	    -13.72640109	     15.59744053	    -24.84074673	      0.00000000	    -10.37563896	     -3.79707013	    -12.40590117
      3.42500000	     -1.12523596	      2.88766658	      1.38378573	     -0.45199726	      0.94540447	      0.18506936	     28.68531400	     -1.86651438	     -0.71394521	    -37.99163780	     10.28051816	    -11.85910545	      0.00000000	     -0.68223134	      9.63894178	     14.08051190	    -13.18860225	     15.57633384	    -25.08078753	      0.00000000	    -10.41479644	     -3.76799045	    -12.61687005
      3.43000000	     -1.16035857	      2.89516445	      1.57544551	     -0.44563745	      0.94496864	      0.18487418	     28.66441547	     -1.96643351	     -0.74990191	    -35.85323439	     10.09224555	    -11.78832227	      0.00000000	     -1.35067620	      9.58904892	     14.45589374	    -12.69535901	     15.59996395	    -25.26251537	      0.00000000	    -10.41339309	     -3.73563839	    -12.79281486
      3.43500000	     -1.13359118	      2.94196070	      1.75526358	     -0.43927897	      0.94454201	      0.18472839	     28.57247594	     -2.11228578	     -0.81163565	    -33.73134485	      9.91131927	    -11.59928906	      0.00000000	     -2.10316627	      9.56630357	     14.84030189	    -12.16553518	     15.58709437	    -25.45580673	      0.00000000	    -10.49743229	     -3.75817237	    -13.00940256
      3.44000000	     -1.17739917	      2.97906932	      1.93506864	     -0.43286547	      0.94392539	      0.18458215	     28.53741890	     -2.26092912	     -0.93200854	    -31.60711862	      9.76537301	    -11.31379783	      0.00000000	     -2.74796207	      9.53348118	     15.12753696	    -11.69931543	     15.67002388	    -25.55422540	      0.00000000	    -10.48718174	     -3.76745714	    -13.14828946
      3.44500000	     -1.16393063	      3.04211785	      2.10800788	     -0.42644002	      0.94331913	      0.18447095	     28.44021135	     -2.44098557	     -1.10032479	    -29.51648116	      9.64310905	    -10.90776411	      0.00000000	     -3.46096449	      9.51590249	     15.41025024	    -11.22200464	     15.74683338	    -25.62388492	      0.00000000	    -10.55177341	     -3.80841446	    -13.33234761
